<?xml version="1.0" encoding="UTF-8" standalone="no" ?>
<!DOCTYPE svg PUBLIC "-//W3C//DTD SVG 1.1//EN" "http://www.w3.org/Graphics/SVG/1.1/DTD/svg11.dtd">
<svg xmlns="http://www.w3.org/2000/svg" xmlns:xlink="http://www.w3.org/1999/xlink" version="1.1" width="600" height="600" viewBox="0 0 1000 1000" xml:space="preserve">
<desc>Created with Fabric.js 3.6.3</desc>
<defs>
</defs>
<g transform="matrix(1.5 0 0 1.5 225.77 10.88)"  >
<line style="stroke: rgb(0,0,0); stroke-width: 2; stroke-dasharray: none; stroke-linecap: butt; stroke-dashoffset: 0; stroke-linejoin: miter; stroke-miterlimit: 4; fill: rgb(0,0,0); fill-rule: nonzero; opacity: 1;"  x1="0" y1="0" x2="0" y2="0" />
</g>
<g transform="matrix(1.12 0 0 1.12 501.08 503.21)"  >
<g style=""   >
		<g transform="matrix(0.99 0 0 0.99 58.64 286.98)"  >
<path style="stroke: rgb(143,141,150); stroke-width: 2; stroke-dasharray: 15 15; stroke-linecap: round; stroke-dashoffset: 0; stroke-linejoin: miter; stroke-miterlimit: 4; fill: none; fill-rule: nonzero; opacity: 1;"  transform=" translate(-545.13, -804.44)" d="M 450.5555555555556 804.4444444444445 L 639.7089651089628 804.4444444444445" stroke-linecap="round" />
</g>
		<g transform="matrix(-1.09 0 0 1.09 276.5 -16.71)"  >
<path style="stroke: rgb(143,141,150); stroke-width: 2; stroke-dasharray: 15 15; stroke-linecap: round; stroke-dashoffset: 0; stroke-linejoin: miter; stroke-miterlimit: 4; fill: none; fill-rule: nonzero; opacity: 1;"  transform=" translate(-762.78, -496.5)" d="M 762.7777777777778 616.6666666666667 L 762.7777777777778 376.3325371154094" stroke-linecap="round" />
</g>
		<g transform="matrix(0.57 0 0 0.57 -409.27 -54.89)"  >
<path style="stroke: none; stroke-width: 1; stroke-dasharray: none; stroke-linecap: butt; stroke-dashoffset: 0; stroke-linejoin: miter; stroke-miterlimit: 4; fill: rgb(190,235,250); fill-rule: nonzero; opacity: 1;"  transform=" translate(-49.23, -462.77)" d="m 8.787 503.213 c 11.716 11.716 30.711 11.716 42.426 0 l 42.855 -42.855 c 5.858 -5.858 5.858 -15.355 0 -21.213 l -21.213 -21.213 c -5.858 -5.858 -15.355 -5.858 -21.213 0 l -42.855 42.855 c -11.716 11.716 -11.716 30.71 0 42.426 z" stroke-linecap="round" />
</g>
		<g transform="matrix(0.57 0 0 0.57 -406.72 -50.52)"  >
<path style="stroke: none; stroke-width: 1; stroke-dasharray: none; stroke-linecap: butt; stroke-dashoffset: 0; stroke-linejoin: miter; stroke-miterlimit: 4; fill: rgb(158,226,248); fill-rule: nonzero; opacity: 1;"  transform=" translate(-53.62, -470.27)" d="m 94.068 460.358 c 5.858 -5.858 5.858 -15.355 0 -21.213 l -10.607 -10.607 l -74.674 74.675 c 11.716 11.716 30.711 11.716 42.426 0 z" stroke-linecap="round" />
</g>
		<g transform="matrix(0.41 -0.41 0.41 0.41 -333.97 -129.49)"  >
<path style="stroke: none; stroke-width: 1; stroke-dasharray: none; stroke-linecap: butt; stroke-dashoffset: 0; stroke-linejoin: miter; stroke-miterlimit: 4; fill: rgb(158,226,248); fill-rule: nonzero; opacity: 1;"  transform=" translate(-178.93, -333.07)" d="m 124.525 318.071 h 108.808 v 30 h -108.808 z" stroke-linecap="round" />
</g>
		<g transform="matrix(0.41 -0.41 0.41 0.41 -330.94 -126.47)"  >
<path style="stroke: none; stroke-width: 1; stroke-dasharray: none; stroke-linecap: butt; stroke-dashoffset: 0; stroke-linejoin: miter; stroke-miterlimit: 4; fill: rgb(135,192,237); fill-rule: nonzero; opacity: 1;"  transform=" translate(-184.23, -338.37)" d="m 129.828 330.874 h 108.808 v 15 h -108.808 z" stroke-linecap="round" />
</g>
		<g transform="matrix(0.57 0 0 0.57 -250 -215.61)"  >
<circle style="stroke: none; stroke-width: 1; stroke-dasharray: none; stroke-linecap: butt; stroke-dashoffset: 0; stroke-linejoin: miter; stroke-miterlimit: 4; fill: rgb(153,159,237); fill-rule: nonzero; opacity: 1;"  cx="0" cy="0" r="170" />
</g>
		<g transform="matrix(0.57 0 0 0.57 -235.51 -201.12)"  >
<path style="stroke: none; stroke-width: 1; stroke-dasharray: none; stroke-linecap: butt; stroke-dashoffset: 0; stroke-linejoin: miter; stroke-miterlimit: 4; fill: rgb(124,132,232); fill-rule: nonzero; opacity: 1;"  transform=" translate(-351.9, -209.9)" d="m 327 355 c 93.888 0 170 -76.112 170 -170 c 0 -46.944 -19.028 -89.444 -49.792 -120.208 l -240.416 240.416 c 30.764 30.764 73.264 49.792 120.208 49.792 z" stroke-linecap="round" />
</g>
		<g transform="matrix(0.57 0 0 0.57 -250.09 -215.7)"  >
<path style="stroke: none; stroke-width: 1; stroke-dasharray: none; stroke-linecap: butt; stroke-dashoffset: 0; stroke-linejoin: miter; stroke-miterlimit: 4; fill: rgb(190,235,250); fill-rule: nonzero; opacity: 1;"  transform=" translate(-327, -185)" d="m 327 370 c -102.009 0 -185 -82.991 -185 -185 s 82.991 -185 185 -185 s 185 82.991 185 185 s -82.991 185 -185 185 z m 0 -340 c -85.467 0 -155 69.533 -155 155 s 69.533 155 155 155 s 155 -69.533 155 -155 s -69.533 -155 -155 -155 z" stroke-linecap="round" />
</g>
		<g transform="matrix(0.57 0 0 0.57 -234.3 -199.91)"  >
<path style="stroke: none; stroke-width: 1; stroke-dasharray: none; stroke-linecap: butt; stroke-dashoffset: 0; stroke-linejoin: miter; stroke-miterlimit: 4; fill: rgb(158,226,248); fill-rule: nonzero; opacity: 1;"  transform=" translate(-354.12, -212.12)" d="m 436.55 75.45 c 28.067 28.066 45.45 66.816 45.45 109.55 c 0 85.467 -69.533 155 -155 155 c -42.734 0 -81.484 -17.383 -109.55 -45.45 l -21.203 21.203 c 33.498 33.499 79.748 54.247 130.753 54.247 c 102.009 0 185 -82.991 185 -185 c 0 -51.005 -20.748 -97.255 -54.247 -130.753 z" stroke-linecap="round" />
</g>
		<g transform="matrix(0.57 0 0 0.57 -374.98 -89.28)"  >
<path style="stroke: none; stroke-width: 1; stroke-dasharray: none; stroke-linecap: butt; stroke-dashoffset: 0; stroke-linejoin: miter; stroke-miterlimit: 4; fill: rgb(255,159,34); fill-rule: nonzero; opacity: 1;"  transform=" translate(-108.85, -403.15)" d="m 161.673 371.541 l -21.213 -21.213 c -5.858 -5.858 -15.355 -5.858 -21.213 0 l -67.604 67.604 l 42.426 42.426 l 67.604 -67.604 c 5.858 -5.858 5.858 -15.356 0 -21.213 z" stroke-linecap="round" />
</g>
		<g transform="matrix(0.57 0 0 0.57 -368.8 -84.91)"  >
<path style="stroke: none; stroke-width: 1; stroke-dasharray: none; stroke-linecap: butt; stroke-dashoffset: 0; stroke-linejoin: miter; stroke-miterlimit: 4; fill: rgb(255,124,72); fill-rule: nonzero; opacity: 1;"  transform=" translate(-119.46, -410.65)" d="m 94.069 460.358 l 67.604 -67.604 c 5.858 -5.858 5.858 -15.355 0 -21.213 l -10.607 -10.607 l -78.211 78.211 z" stroke-linecap="round" />
</g>
		<g transform="matrix(0.57 0 0 0.57 -249.67 -197.64)"  >
<path style="stroke: none; stroke-width: 1; stroke-dasharray: none; stroke-linecap: butt; stroke-dashoffset: 0; stroke-linejoin: miter; stroke-miterlimit: 4; fill: rgb(255,124,72); fill-rule: nonzero; opacity: 1;"  transform=" translate(-327, -215)" d="m 212 175 v 60 c 0 19.33 15.67 35 35 35 h 160 c 19.33 0 35 -15.67 35 -35 v -60 c 0 -8.284 -6.716 -15 -15 -15 h -200 c -8.284 0 -15 6.716 -15 15 z" stroke-linecap="round" />
</g>
		<g transform="matrix(0.57 0 0 0.57 -216.2 -197.64)"  >
<path style="stroke: none; stroke-width: 1; stroke-dasharray: none; stroke-linecap: butt; stroke-dashoffset: 0; stroke-linejoin: miter; stroke-miterlimit: 4; fill: rgb(255,76,4); fill-rule: nonzero; opacity: 1;"  transform=" translate(-384.5, -215)" d="m 427 160 h -100 v 110 h 80 c 19.33 0 35 -15.67 35 -35 v -60 c 0 -8.284 -6.716 -15 -15 -15 z" stroke-linecap="round" />
</g>
		<g transform="matrix(0.57 0 0 0.57 -214.51 -214.74)"  >
<path style="stroke: none; stroke-width: 1; stroke-dasharray: none; stroke-linecap: butt; stroke-dashoffset: 0; stroke-linejoin: miter; stroke-miterlimit: 4; fill: rgb(255,222,85); fill-rule: nonzero; opacity: 1;"  transform=" translate(-387, -185)" d="m 387 210 c -8.284 0 -15 -6.716 -15 -15 v -35 h 30 v 35 c 0 8.284 -6.716 15 -15 15 z" stroke-linecap="round" />
</g>
		<g transform="matrix(0.57 0 0 0.57 -283.63 -214.74)"  >
<path style="stroke: none; stroke-width: 1; stroke-dasharray: none; stroke-linecap: butt; stroke-dashoffset: 0; stroke-linejoin: miter; stroke-miterlimit: 4; fill: rgb(255,247,159); fill-rule: nonzero; opacity: 1;"  transform=" translate(-267, -185)" d="m 267 210 c -8.284 0 -15 -6.716 -15 -15 v -35 h 30 v 35 c 0 8.284 -6.716 15 -15 15 z" stroke-linecap="round" />
</g>
		<g transform="matrix(0.57 0 0 0.57 -249.31 -263.79)"  >
<path style="stroke: none; stroke-width: 1; stroke-dasharray: none; stroke-linecap: butt; stroke-dashoffset: 0; stroke-linejoin: miter; stroke-miterlimit: 4; fill: rgb(95,85,175); fill-rule: nonzero; opacity: 1;"  transform=" translate(-327, -100)" d="m 367 140 c -8.284 0 -15 -6.716 -15 -15 v -30 c 0 -2.757 -2.243 -5 -5 -5 h -40 c -2.757 0 -5 2.243 -5 5 v 30 c 0 8.284 -6.716 15 -15 15 s -15 -6.716 -15 -15 v -30 c 0 -19.299 15.701 -35 35 -35 h 40 c 19.299 0 35 15.701 35 35 v 30 c 0 8.284 -6.716 15 -15 15 z" stroke-linecap="round" />
</g>
		<g transform="matrix(0.57 0 0 0.57 -233.3 -263.79)"  >
<path style="stroke: none; stroke-width: 1; stroke-dasharray: none; stroke-linecap: butt; stroke-dashoffset: 0; stroke-linejoin: miter; stroke-miterlimit: 4; fill: rgb(69,61,131); fill-rule: nonzero; opacity: 1;"  transform=" translate(-354.5, -100)" d="m 352 95 v 30 c 0 8.284 6.716 15 15 15 s 15 -6.716 15 -15 v -30 c 0 -19.299 -15.701 -35 -35 -35 h -20 v 30 h 20 c 2.757 0 5 2.243 5 5 z" stroke-linecap="round" />
</g>
		<g transform="matrix(0.57 0 0 0.57 -249.67 -239.26)"  >
<path style="stroke: none; stroke-width: 1; stroke-dasharray: none; stroke-linecap: butt; stroke-dashoffset: 0; stroke-linejoin: miter; stroke-miterlimit: 4; fill: rgb(255,159,34); fill-rule: nonzero; opacity: 1;"  transform=" translate(-327, -142.5)" d="m 442 145 c 0 -19.299 -15.701 -35 -35 -35 h -160 c -19.299 0 -35 15.701 -35 35 v 30 h 230 z" stroke-linecap="round" />
</g>
		<g transform="matrix(0.57 0 0 0.57 -216.2 -239.26)"  >
<path style="stroke: none; stroke-width: 1; stroke-dasharray: none; stroke-linecap: butt; stroke-dashoffset: 0; stroke-linejoin: miter; stroke-miterlimit: 4; fill: rgb(255,124,72); fill-rule: nonzero; opacity: 1;"  transform=" translate(-384.5, -142.5)" d="m 442 145 c 0 -19.299 -15.701 -35 -35 -35 h -80 v 65 h 115 z" stroke-linecap="round" />
</g>
		<g transform="matrix(0.57 0 0 0.57 244.93 -335.34)"  >
<path style="stroke: none; stroke-width: 1; stroke-dasharray: none; stroke-linecap: butt; stroke-dashoffset: 0; stroke-linejoin: miter; stroke-miterlimit: 4; fill: rgb(255,159,34); fill-rule: nonzero; opacity: 1;"  transform=" translate(-256, -135)" d="m 336 0 h -160 c -30.327 0 -55 24.673 -55 55 v 160 c 0 30.327 24.673 55 55 55 h 160 c 30.327 0 55 -24.673 55 -55 v -160 c 0 -30.327 -24.673 -55 -55 -55 z" stroke-linecap="round" />
</g>
		<g transform="matrix(0.57 0 0 0.57 284.21 -335.34)"  >
<path style="stroke: none; stroke-width: 1; stroke-dasharray: none; stroke-linecap: butt; stroke-dashoffset: 0; stroke-linejoin: miter; stroke-miterlimit: 4; fill: rgb(255,124,72); fill-rule: nonzero; opacity: 1;"  transform=" translate(-323.5, -135)" d="m 336 0 h -80 v 270 h 80 c 30.327 0 55 -24.673 55 -55 v -160 c 0 -30.327 -24.673 -55 -55 -55 z" stroke-linecap="round" />
</g>
		<g transform="matrix(0.57 0 0 0.57 337.33 -152.3)"  >
<path style="stroke: none; stroke-width: 1; stroke-dasharray: none; stroke-linecap: butt; stroke-dashoffset: 0; stroke-linejoin: miter; stroke-miterlimit: 4; fill: rgb(190,235,250); fill-rule: nonzero; opacity: 1;"  transform=" translate(-416, -452)" d="m 496 512 h -175 v -23.789 c 0 -52.302 41.763 -95.7 94.063 -96.207 c 52.811 -0.511 95.937 42.301 95.937 94.996 v 10 c 0 8.284 -6.716 15 -15 15 z" stroke-linecap="round" />
</g>
		<g transform="matrix(0.57 0 0 0.57 364.97 -152.3)"  >
<path style="stroke: none; stroke-width: 1; stroke-dasharray: none; stroke-linecap: butt; stroke-dashoffset: 0; stroke-linejoin: miter; stroke-miterlimit: 4; fill: rgb(158,226,248); fill-rule: nonzero; opacity: 1;"  transform=" translate(-463.5, -452)" d="m 416 392.007 v 119.993 h 80 c 8.284 0 15 -6.716 15 -15 v -10 c 0 -52.383 -42.617 -94.992 -95 -94.993 z" stroke-linecap="round" />
</g>
		<g transform="matrix(0.57 0 0 0.57 337.55 -205.56)"  >
<path style="stroke: none; stroke-width: 1; stroke-dasharray: none; stroke-linecap: butt; stroke-dashoffset: 0; stroke-linejoin: miter; stroke-miterlimit: 4; fill: rgb(255,228,194); fill-rule: nonzero; opacity: 1;"  transform=" translate(-416, -359.5)" d="m 416 417 c -31.705 0 -57.5 -25.795 -57.5 -57.5 s 25.795 -57.5 57.5 -57.5 s 57.5 25.795 57.5 57.5 s -25.795 57.5 -57.5 57.5 z" stroke-linecap="round" />
</g>
		<g transform="matrix(0.57 0 0 0.57 354.28 -205.56)"  >
<path style="stroke: none; stroke-width: 1; stroke-dasharray: none; stroke-linecap: butt; stroke-dashoffset: 0; stroke-linejoin: miter; stroke-miterlimit: 4; fill: rgb(242,209,165); fill-rule: nonzero; opacity: 1;"  transform=" translate(-444.75, -359.5)" d="m 416 302 v 115 c 31.706 0 57.5 -25.794 57.5 -57.5 s -25.794 -57.5 -57.5 -57.5 z" stroke-linecap="round" />
</g>
		<g transform="matrix(0.57 0 0 0.57 153.01 -152.3)"  >
<path style="stroke: none; stroke-width: 1; stroke-dasharray: none; stroke-linecap: butt; stroke-dashoffset: 0; stroke-linejoin: miter; stroke-miterlimit: 4; fill: rgb(255,247,159); fill-rule: nonzero; opacity: 1;"  transform=" translate(-96, -452)" d="m 191 512 h -175 c -8.284 0 -15 -6.716 -15 -15 v -8.789 c 0 -52.302 41.763 -95.7 94.063 -96.207 c 52.811 -0.511 95.937 42.301 95.937 94.996 z" stroke-linecap="round" />
</g>
		<g transform="matrix(0.57 0 0 0.57 180.65 -152.3)"  >
<path style="stroke: none; stroke-width: 1; stroke-dasharray: none; stroke-linecap: butt; stroke-dashoffset: 0; stroke-linejoin: miter; stroke-miterlimit: 4; fill: rgb(255,222,85); fill-rule: nonzero; opacity: 1;"  transform=" translate(-143.5, -452)" d="m 96 392.007 v 119.993 h 95 v -25 c 0 -52.383 -42.617 -94.992 -95 -94.993 z" stroke-linecap="round" />
</g>
		<g transform="matrix(0.57 0 0 0.57 153.23 -205.56)"  >
<path style="stroke: none; stroke-width: 1; stroke-dasharray: none; stroke-linecap: butt; stroke-dashoffset: 0; stroke-linejoin: miter; stroke-miterlimit: 4; fill: rgb(255,228,194); fill-rule: nonzero; opacity: 1;"  transform=" translate(-96, -359.5)" d="m 96 417 c -31.705 0 -57.5 -25.795 -57.5 -57.5 s 25.795 -57.5 57.5 -57.5 s 57.5 25.795 57.5 57.5 s -25.795 57.5 -57.5 57.5 z" stroke-linecap="round" />
</g>
		<g transform="matrix(0.57 0 0 0.57 169.96 -205.56)"  >
<path style="stroke: none; stroke-width: 1; stroke-dasharray: none; stroke-linecap: butt; stroke-dashoffset: 0; stroke-linejoin: miter; stroke-miterlimit: 4; fill: rgb(242,209,165); fill-rule: nonzero; opacity: 1;"  transform=" translate(-124.75, -359.5)" d="m 96 302 v 115 c 31.706 0 57.5 -25.794 57.5 -57.5 s -25.794 -57.5 -57.5 -57.5 z" stroke-linecap="round" />
</g>
		<g transform="matrix(0.57 0 0 0.57 245.29 -334.87)"  >
<path style="stroke: none; stroke-width: 1; stroke-dasharray: none; stroke-linecap: butt; stroke-dashoffset: 0; stroke-linejoin: miter; stroke-miterlimit: 4; fill: rgb(255,247,159); fill-rule: nonzero; opacity: 1;"  transform=" translate(-256, -135)" d="m 220.645 188.033 l -35.355 -35.355 c -5.858 -5.858 -5.858 -15.355 0 -21.213 c 5.858 -5.858 15.355 -5.858 21.213 0 l 24.749 24.748 l 74.246 -74.246 c 5.858 -5.858 15.355 -5.858 21.213 0 c 5.858 5.858 5.858 15.355 0 21.213 l -84.853 84.853 c -5.858 5.858 -15.355 5.858 -21.213 0 z" stroke-linecap="round" />
</g>
		<g transform="matrix(0.57 0 0 0.57 267.14 -340.16)"  >
<path style="stroke: none; stroke-width: 1; stroke-dasharray: none; stroke-linecap: butt; stroke-dashoffset: 0; stroke-linejoin: miter; stroke-miterlimit: 4; fill: rgb(255,222,85); fill-rule: nonzero; opacity: 1;"  transform=" translate(-293.55, -125.73)" d="m 326.711 81.967 c -5.858 -5.858 -15.355 -5.858 -21.213 0 l -49.498 49.497 v 42.427 l 70.711 -70.711 c 5.858 -5.857 5.858 -15.355 0 -21.213 z" stroke-linecap="round" />
</g>
		<g transform="matrix(0.57 0 0 0.57 245.17 -152.3)"  >
<path style="stroke: none; stroke-width: 1; stroke-dasharray: none; stroke-linecap: butt; stroke-dashoffset: 0; stroke-linejoin: miter; stroke-miterlimit: 4; fill: rgb(95,85,175); fill-rule: nonzero; opacity: 1;"  transform=" translate(-256, -452)" d="m 351 512 h -190 v -23.789 c 0 -52.302 41.763 -95.7 94.063 -96.207 c 52.811 -0.511 95.937 42.301 95.937 94.996 z" stroke-linecap="round" />
</g>
		<g transform="matrix(0.57 0 0 0.57 272.81 -152.3)"  >
<path style="stroke: none; stroke-width: 1; stroke-dasharray: none; stroke-linecap: butt; stroke-dashoffset: 0; stroke-linejoin: miter; stroke-miterlimit: 4; fill: rgb(69,61,131); fill-rule: nonzero; opacity: 1;"  transform=" translate(-303.5, -452)" d="m 256 392.007 v 119.993 h 95 v -25 c 0 -52.383 -42.617 -94.992 -95 -94.993 z" stroke-linecap="round" />
</g>
		<g transform="matrix(0.57 0 0 0.57 245.39 -205.56)"  >
<path style="stroke: none; stroke-width: 1; stroke-dasharray: none; stroke-linecap: butt; stroke-dashoffset: 0; stroke-linejoin: miter; stroke-miterlimit: 4; fill: rgb(255,228,194); fill-rule: nonzero; opacity: 1;"  transform=" translate(-256, -359.5)" d="m 256 417 c -31.705 0 -57.5 -25.795 -57.5 -57.5 s 25.795 -57.5 57.5 -57.5 s 57.5 25.795 57.5 57.5 s -25.795 57.5 -57.5 57.5 z" stroke-linecap="round" />
</g>
		<g transform="matrix(0.57 0 0 0.57 262.13 -205.56)"  >
<path style="stroke: none; stroke-width: 1; stroke-dasharray: none; stroke-linecap: butt; stroke-dashoffset: 0; stroke-linejoin: miter; stroke-miterlimit: 4; fill: rgb(242,209,165); fill-rule: nonzero; opacity: 1;"  transform=" translate(-284.75, -359.5)" d="m 256 302 v 115 c 31.706 0 57.5 -25.794 57.5 -57.5 s -25.794 -57.5 -57.5 -57.5 z" stroke-linecap="round" />
</g>
		<g transform="matrix(0.99 0 0 0.99 -306.65 104.09)"  >
<path style="stroke: rgb(143,141,150); stroke-width: 2; stroke-dasharray: 15 15; stroke-linecap: round; stroke-dashoffset: 0; stroke-linejoin: miter; stroke-miterlimit: 4; fill: none; fill-rule: nonzero; opacity: 1;"  transform=" translate(-174.16, -608.74)" d="M 193.95348837209303 787.4418604651163 L 154.3748532102236 787.4418604651163 L 154.37485321022362 430.0436014759416" stroke-linecap="round" />
</g>
		<g transform="matrix(0.57 0 0 0.57 -75.5 145.74)"  >
<path style="stroke: none; stroke-width: 1; stroke-dasharray: none; stroke-linecap: butt; stroke-dashoffset: 0; stroke-linejoin: miter; stroke-miterlimit: 4; fill: rgb(255,124,72); fill-rule: nonzero; opacity: 1;"  transform=" translate(-401, -45)" d="m 416 90 c -8.284 0 -15 -6.716 -15 -15 v -30 c 0 -8.271 -6.729 -15 -15 -15 c -8.284 0 -15 -6.716 -15 -15 s 6.716 -15 15 -15 c 24.813 0 45 20.187 45 45 v 30 c 0 8.284 -6.716 15 -15 15 z" stroke-linecap="round" />
</g>
		<g transform="matrix(0.57 0 0 0.57 -245.69 283.47)"  >
<path style="stroke: none; stroke-width: 1; stroke-dasharray: none; stroke-linecap: butt; stroke-dashoffset: 0; stroke-linejoin: miter; stroke-miterlimit: 4; fill: rgb(135,192,237); fill-rule: nonzero; opacity: 1;"  transform=" translate(-106, -286)" d="m 106 512 h -60 c -8.284 0 -15 -6.716 -15 -15 v -422 c 0 -8.284 6.716 -15 15 -15 h 120 c 4.347 0 8.479 1.886 11.329 5.168 c 2.849 3.283 4.134 7.64 3.522 11.943 l -60 422 c -1.052 7.395 -7.382 12.889 -14.851 12.889 z" stroke-linecap="round" />
</g>
		<g transform="matrix(0.57 0 0 0.57 -142.73 283.47)"  >
<path style="stroke: none; stroke-width: 1; stroke-dasharray: none; stroke-linecap: butt; stroke-dashoffset: 0; stroke-linejoin: miter; stroke-miterlimit: 4; fill: rgb(190,235,250); fill-rule: nonzero; opacity: 1;"  transform=" translate(-286, -286)" d="m 166 60 h 300 c 8.284 0 15 6.716 15 15 v 422 c 0 8.284 -6.716 15 -15 15 h -375 v -377 z" stroke-linecap="round" />
</g>
		<g transform="matrix(0.57 0 0 0.57 -85.99 283.47)"  >
<path style="stroke: none; stroke-width: 1; stroke-dasharray: none; stroke-linecap: butt; stroke-dashoffset: 0; stroke-linejoin: miter; stroke-miterlimit: 4; fill: rgb(158,226,248); fill-rule: nonzero; opacity: 1;"  transform=" translate(-383.5, -286)" d="m 286 60 v 452 h 180 c 8.284 0 15 -6.716 15 -15 v -422 c 0 -8.284 -6.716 -15 -15 -15 z" stroke-linecap="round" />
</g>
		<g transform="matrix(0.57 0 0 0.57 -142.37 336.59)"  >
<path style="stroke: none; stroke-width: 1; stroke-dasharray: none; stroke-linecap: butt; stroke-dashoffset: 0; stroke-linejoin: miter; stroke-miterlimit: 4; fill: rgb(158,226,248); fill-rule: nonzero; opacity: 1;"  transform=" translate(-286, -376)" d="m 406 391 h -240 c -8.284 0 -15 -6.716 -15 -15 s 6.716 -15 15 -15 h 240 c 8.284 0 15 6.716 15 15 s -6.716 15 -15 15 z" stroke-linecap="round" />
</g>
		<g transform="matrix(0.57 0 0 0.57 -142.37 371.15)"  >
<path style="stroke: none; stroke-width: 1; stroke-dasharray: none; stroke-linecap: butt; stroke-dashoffset: 0; stroke-linejoin: miter; stroke-miterlimit: 4; fill: rgb(158,226,248); fill-rule: nonzero; opacity: 1;"  transform=" translate(-286, -436)" d="m 406 451 h -240 c -8.284 0 -15 -6.716 -15 -15 s 6.716 -15 15 -15 h 240 c 8.284 0 15 6.716 15 15 s -6.716 15 -15 15 z" stroke-linecap="round" />
</g>
		<g transform="matrix(0.57 0 0 0.57 -103.09 336.59)"  >
<path style="stroke: none; stroke-width: 1; stroke-dasharray: none; stroke-linecap: butt; stroke-dashoffset: 0; stroke-linejoin: miter; stroke-miterlimit: 4; fill: rgb(135,192,237); fill-rule: nonzero; opacity: 1;"  transform=" translate(-353.5, -376)" d="m 421 376 c 0 -8.284 -6.716 -15 -15 -15 h -120 v 30 h 120 c 8.284 0 15 -6.716 15 -15 z" stroke-linecap="round" />
</g>
		<g transform="matrix(0.57 0 0 0.57 -103.09 371.15)"  >
<path style="stroke: none; stroke-width: 1; stroke-dasharray: none; stroke-linecap: butt; stroke-dashoffset: 0; stroke-linejoin: miter; stroke-miterlimit: 4; fill: rgb(135,192,237); fill-rule: nonzero; opacity: 1;"  transform=" translate(-353.5, -436)" d="m 421 436 c 0 -8.284 -6.716 -15 -15 -15 h -120 v 30 h 120 c 8.284 0 15 -6.716 15 -15 z" stroke-linecap="round" />
</g>
		<g transform="matrix(0.57 0 0 0.57 -81.26 302.03)"  >
<path style="stroke: none; stroke-width: 1; stroke-dasharray: none; stroke-linecap: butt; stroke-dashoffset: 0; stroke-linejoin: miter; stroke-miterlimit: 4; fill: rgb(135,192,237); fill-rule: nonzero; opacity: 1;"  transform=" translate(-391, -316)" d="m 406 331 h -30 c -8.284 0 -15 -6.716 -15 -15 s 6.716 -15 15 -15 h 30 c 8.284 0 15 6.716 15 15 s -6.716 15 -15 15 z" stroke-linecap="round" />
</g>
		<g transform="matrix(0.57 0 0 0.57 -81.26 267.47)"  >
<path style="stroke: none; stroke-width: 1; stroke-dasharray: none; stroke-linecap: butt; stroke-dashoffset: 0; stroke-linejoin: miter; stroke-miterlimit: 4; fill: rgb(135,192,237); fill-rule: nonzero; opacity: 1;"  transform=" translate(-391, -256)" d="m 406 271 h -30 c -8.284 0 -15 -6.716 -15 -15 s 6.716 -15 15 -15 h 30 c 8.284 0 15 6.716 15 15 s -6.716 15 -15 15 z" stroke-linecap="round" />
</g>
		<g transform="matrix(0.57 0 0 0.57 -232.51 176.03)"  >
<path style="stroke: none; stroke-width: 1; stroke-dasharray: none; stroke-linecap: butt; stroke-dashoffset: 0; stroke-linejoin: miter; stroke-miterlimit: 4; fill: rgb(158,226,248); fill-rule: nonzero; opacity: 1;"  transform=" translate(-128.5, -97.5)" d="m 166 60 v 60 c 0 8.284 -6.716 15 -15 15 h -60 c 0 -41.355 33.645 -75 75 -75 z" stroke-linecap="round" />
</g>
		<g transform="matrix(0.57 0 0 0.57 -165.17 275.84)"  >
<path style="stroke: none; stroke-width: 1; stroke-dasharray: none; stroke-linecap: butt; stroke-dashoffset: 0; stroke-linejoin: miter; stroke-miterlimit: 4; fill: rgb(95,85,175); fill-rule: nonzero; opacity: 1;"  transform=" translate(-246, -271)" d="m 326 331 h -160 c -8.284 0 -15 -6.716 -15 -15 v -8.789 c 0 -52.302 41.763 -95.7 94.063 -96.207 c 52.811 -0.511 95.937 42.301 95.937 94.996 v 10 c 0 8.284 -6.716 15 -15 15 z" stroke-linecap="round" />
</g>
		<g transform="matrix(0.57 0 0 0.57 -137.53 275.84)"  >
<path style="stroke: none; stroke-width: 1; stroke-dasharray: none; stroke-linecap: butt; stroke-dashoffset: 0; stroke-linejoin: miter; stroke-miterlimit: 4; fill: rgb(69,61,131); fill-rule: nonzero; opacity: 1;"  transform=" translate(-293.5, -271)" d="m 246 211.007 v 119.993 h 80 c 8.284 0 15 -6.716 15 -15 v -10 c 0 -52.383 -42.617 -94.992 -95 -94.993 z" stroke-linecap="round" />
</g>
		<g transform="matrix(0.57 0 0 0.57 -164.95 222.57)"  >
<path style="stroke: none; stroke-width: 1; stroke-dasharray: none; stroke-linecap: butt; stroke-dashoffset: 0; stroke-linejoin: miter; stroke-miterlimit: 4; fill: rgb(255,228,194); fill-rule: nonzero; opacity: 1;"  transform=" translate(-246, -178.5)" d="m 246 236 c -31.705 0 -57.5 -25.795 -57.5 -57.5 s 25.795 -57.5 57.5 -57.5 s 57.5 25.795 57.5 57.5 s -25.795 57.5 -57.5 57.5 z" stroke-linecap="round" />
</g>
		<g transform="matrix(0.57 0 0 0.57 -148.22 222.57)"  >
<path style="stroke: none; stroke-width: 1; stroke-dasharray: none; stroke-linecap: butt; stroke-dashoffset: 0; stroke-linejoin: miter; stroke-miterlimit: 4; fill: rgb(242,209,165); fill-rule: nonzero; opacity: 1;"  transform=" translate(-274.75, -178.5)" d="m 246 121 v 115 c 31.706 0 57.5 -25.794 57.5 -57.5 s -25.794 -57.5 -57.5 -57.5 z" stroke-linecap="round" />
</g>
		<g transform="matrix(0.57 0 0 0.57 -84.23 171.39)"  >
<path style="stroke: none; stroke-width: 1; stroke-dasharray: none; stroke-linecap: butt; stroke-dashoffset: 0; stroke-linejoin: miter; stroke-miterlimit: 4; fill: rgb(255,124,72); fill-rule: nonzero; opacity: 1;"  transform=" translate(-386, -90)" d="m 386 180 c -24.813 0 -45 -20.187 -45 -45 v -90 c 0 -24.813 20.187 -45 45 -45 c 8.284 0 15 6.716 15 15 s -6.716 15 -15 15 c -8.271 0 -15 6.729 -15 15 v 90 c 0 8.271 6.729 15 15 15 s 15 -6.729 15 -15 c 0 -8.284 6.716 -15 15 -15 s 15 6.716 15 15 c 0 24.813 -20.187 45 -45 45 z" stroke-linecap="round" />
</g>
		<g transform="matrix(0.57 0 0 0.57 367.94 334.43)"  >
<path style="stroke: none; stroke-width: 1; stroke-dasharray: none; stroke-linecap: butt; stroke-dashoffset: 0; stroke-linejoin: miter; stroke-miterlimit: 4; fill: rgb(95,85,175); fill-rule: nonzero; opacity: 1;"  transform=" translate(-392, -392)" d="m 302 362 h 60 v -15 c 0 -41.421 33.579 -75 75 -75 c 41.421 0 75 33.579 75 75 v 150 c 0 8.284 -6.716 15 -15 15 h -85 c -8.284 0 -50 -6.716 -50 -15 v -75 h -60 c -16.569 0 -30 -13.431 -30 -30 c 0 -16.569 13.431 -30 30 -30 z" stroke-linecap="round" />
</g>
		<g transform="matrix(0.57 0 0 0.57 415.96 334.43)"  >
<path style="stroke: none; stroke-width: 1; stroke-dasharray: none; stroke-linecap: butt; stroke-dashoffset: 0; stroke-linejoin: miter; stroke-miterlimit: 4; fill: rgb(69,61,131); fill-rule: nonzero; opacity: 1;"  transform=" translate(-474.5, -392)" d="m 437 272 v 240 h 60 c 8.284 0 15 -6.716 15 -15 v -150 c 0 -41.421 -33.579 -75 -75 -75 z" stroke-linecap="round" />
</g>
		<g transform="matrix(0.57 0 0 0.57 211.27 334.43)"  >
<path style="stroke: none; stroke-width: 1; stroke-dasharray: none; stroke-linecap: butt; stroke-dashoffset: 0; stroke-linejoin: miter; stroke-miterlimit: 4; fill: rgb(95,85,175); fill-rule: nonzero; opacity: 1;"  transform=" translate(-120, -392)" d="m 210 362 h -60 v -15 c 0 -41.421 -33.579 -75 -75 -75 c -41.421 0 -75 33.579 -75 75 v 150 c 0 8.284 6.716 15 15 15 h 85 c 8.284 0 50 -6.716 50 -15 v -75 h 60 c 16.569 0 30 -13.431 30 -30 c 0 -16.569 -13.431 -30 -30 -30 z" stroke-linecap="round" />
</g>
		<g transform="matrix(0.57 0 0 0.57 211.27 334.43)"  >
<path style="stroke: none; stroke-width: 1; stroke-dasharray: none; stroke-linecap: butt; stroke-dashoffset: 0; stroke-linejoin: miter; stroke-miterlimit: 4; fill: rgb(95,85,175); fill-rule: nonzero; opacity: 1;"  transform=" translate(-120, -392)" d="m 210 362 h -60 v -15 c 0 -41.421 -33.579 -75 -75 -75 c -41.421 0 -75 33.579 -75 75 v 150 c 0 8.284 6.716 15 15 15 h 85 c 8.284 0 50 -6.716 50 -15 v -75 h 60 c 16.569 0 30 -13.431 30 -30 c 0 -16.569 -13.431 -30 -30 -30 z" stroke-linecap="round" />
</g>
		<g transform="matrix(0.57 0 0 0.57 233.09 334.43)"  >
<path style="stroke: none; stroke-width: 1; stroke-dasharray: none; stroke-linecap: butt; stroke-dashoffset: 0; stroke-linejoin: miter; stroke-miterlimit: 4; fill: rgb(69,61,131); fill-rule: nonzero; opacity: 1;"  transform=" translate(-157.5, -392)" d="m 210 362 h -60 v -15 c 0 -41.421 -33.579 -75 -75 -75 v 240 h 25 c 8.284 0 50 -6.716 50 -15 v -75 h 60 c 16.569 0 30 -13.431 30 -30 c 0 -16.569 -13.431 -30 -30 -30 z" stroke-linecap="round" />
</g>
		<g transform="matrix(0.57 0 0 0.57 381.31 343.52)"  >
<path style="stroke: none; stroke-width: 1; stroke-dasharray: none; stroke-linecap: butt; stroke-dashoffset: 0; stroke-linejoin: miter; stroke-miterlimit: 4; fill: rgb(69,61,131); fill-rule: nonzero; opacity: 1;"  transform=" translate(-414.5, -407)" d="m 437 397 v -20 c 0 -8.284 6.716 -15 15 -15 c 8.284 0 15 6.716 15 15 v 20 c 0 30.376 -24.624 55 -55 55 h -50 v -30 h 50 c 13.807 0 25 -11.193 25 -25 z" stroke-linecap="round" />
</g>
		<g transform="matrix(0.57 0 0 0.57 403.13 341.8)"  >
<path style="stroke: none; stroke-width: 1; stroke-dasharray: none; stroke-linecap: butt; stroke-dashoffset: 0; stroke-linejoin: miter; stroke-miterlimit: 4; fill: rgb(45,39,85); fill-rule: nonzero; opacity: 1;"  transform=" translate(-452, -403.99)" d="m 452 362 c -8.284 0 -15 6.716 -15 15 v 20 v 48.985 c 17.804 -9.105 30 -27.615 30 -48.985 v -20 c 0 -8.284 -6.716 -15 -15 -15 z" stroke-linecap="round" />
</g>
		<g transform="matrix(0.57 0 0 0.57 289.64 163.5)"  >
<path style="stroke: none; stroke-width: 1; stroke-dasharray: none; stroke-linecap: butt; stroke-dashoffset: 0; stroke-linejoin: miter; stroke-miterlimit: 4; fill: rgb(190,235,250); fill-rule: nonzero; opacity: 1;"  transform=" translate(-256, -95)" d="m 316.002 190 c -3.345 0 -6.66 -1.117 -9.372 -3.287 l -45.892 -36.713 h -9.477 l -45.892 36.713 c -4.504 3.604 -10.671 4.305 -15.868 1.807 c -5.195 -2.499 -8.501 -7.754 -8.501 -13.52 v -25 h -5 c -19.299 0 -35 -15.701 -35 -35 v -80 c 0 -19.299 15.701 -35 35 -35 h 160 c 19.299 0 35 15.701 35 35 v 80 c 0 19.299 -15.701 35 -35 35 h -5 v 25 c 0 5.766 -3.306 11.021 -8.502 13.52 c -2.066 0.993 -4.288 1.48 -6.496 1.48 z" stroke-linecap="round" />
</g>
		<g transform="matrix(0.57 0 0 0.57 323.11 163.5)"  >
<path style="stroke: none; stroke-width: 1; stroke-dasharray: none; stroke-linecap: butt; stroke-dashoffset: 0; stroke-linejoin: miter; stroke-miterlimit: 4; fill: rgb(158,226,248); fill-rule: nonzero; opacity: 1;"  transform=" translate(-313.5, -95)" d="m 336 0 h -80 v 150 h 4.738 l 45.892 36.713 c 4.514 3.615 10.698 4.295 15.868 1.807 c 5.196 -2.498 8.502 -7.754 8.502 -13.52 v -25 h 5 c 19.299 0 35 -15.701 35 -35 v -80 c 0 -19.299 -15.701 -35 -35 -35 z" stroke-linecap="round" />
</g>
		<g transform="matrix(0.57 0 0 0.57 290 152.46)"  >
<path style="stroke: none; stroke-width: 1; stroke-dasharray: none; stroke-linecap: butt; stroke-dashoffset: 0; stroke-linejoin: miter; stroke-miterlimit: 4; fill: rgb(158,226,248); fill-rule: nonzero; opacity: 1;"  transform=" translate(-256, -75)" d="m 296 90 h -80 c -8.284 0 -15 -6.716 -15 -15 s 6.716 -15 15 -15 h 80 c 8.284 0 15 6.716 15 15 s -6.716 15 -15 15 z" stroke-linecap="round" />
</g>
		<g transform="matrix(0.57 0 0 0.57 306.01 152.46)"  >
<path style="stroke: none; stroke-width: 1; stroke-dasharray: none; stroke-linecap: butt; stroke-dashoffset: 0; stroke-linejoin: miter; stroke-miterlimit: 4; fill: rgb(135,192,237); fill-rule: nonzero; opacity: 1;"  transform=" translate(-283.5, -75)" d="m 296 60 h -40 v 30 h 40 c 8.284 0 15 -6.716 15 -15 s -6.716 -15 -15 -15 z" stroke-linecap="round" />
</g>
		<g transform="matrix(0.57 0 0 0.57 198.71 343.52)"  >
<path style="stroke: none; stroke-width: 1; stroke-dasharray: none; stroke-linecap: butt; stroke-dashoffset: 0; stroke-linejoin: miter; stroke-miterlimit: 4; fill: rgb(69,61,131); fill-rule: nonzero; opacity: 1;"  transform=" translate(-97.5, -407)" d="m 75 397 v -20 c 0 -8.284 -6.716 -15 -15 -15 c -8.284 0 -15 6.716 -15 15 v 20 c 0 30.376 24.624 55 55 55 h 50 v -30 h -50 c -13.807 0 -25 -11.193 -25 -25 z" stroke-linecap="round" />
</g>
		<g transform="matrix(0.57 0 0 0.57 207.44 353.7)"  >
<path style="stroke: none; stroke-width: 1; stroke-dasharray: none; stroke-linecap: butt; stroke-dashoffset: 0; stroke-linejoin: miter; stroke-miterlimit: 4; fill: rgb(45,39,85); fill-rule: nonzero; opacity: 1;"  transform=" translate(-112.5, -424.5)" d="m 75 397 v 48.985 c 7.503 3.837 15.994 6.015 25 6.015 h 50 v -30 h -50 c -13.807 0 -25 -11.193 -25 -25 z" stroke-linecap="round" />
</g>
		<g transform="matrix(0.57 0 0 0.57 289.39 378.08)"  >
<path style="stroke: none; stroke-width: 1; stroke-dasharray: none; stroke-linecap: butt; stroke-dashoffset: 0; stroke-linejoin: miter; stroke-miterlimit: 4; fill: rgb(255,247,159); fill-rule: nonzero; opacity: 1;"  transform=" translate(-256, -467)" d="m 412 512 h -312 v -90 h 312 z" stroke-linecap="round" />
</g>
		<g transform="matrix(0.57 0 0 0.57 334.79 378.08)"  >
<path style="stroke: none; stroke-width: 1; stroke-dasharray: none; stroke-linecap: butt; stroke-dashoffset: 0; stroke-linejoin: miter; stroke-miterlimit: 4; fill: rgb(255,222,85); fill-rule: nonzero; opacity: 1;"  transform=" translate(-334, -467)" d="m 412 512 h -156 v -90 h 156 z" stroke-linecap="round" />
</g>
		<g transform="matrix(0.57 0 0 0.57 201.53 238.29)"  >
<path style="stroke: none; stroke-width: 1; stroke-dasharray: none; stroke-linecap: butt; stroke-dashoffset: 0; stroke-linejoin: miter; stroke-miterlimit: 4; fill: rgb(255,228,194); fill-rule: nonzero; opacity: 1;"  transform=" translate(-102.5, -224.5)" d="m 102.5 287 c -34.463 0 -62.5 -28.037 -62.5 -62.5 s 28.037 -62.5 62.5 -62.5 s 62.5 28.037 62.5 62.5 s -28.037 62.5 -62.5 62.5 z" stroke-linecap="round" />
</g>
		<g transform="matrix(0.57 0 0 0.57 378.37 238.29)"  >
<path style="stroke: none; stroke-width: 1; stroke-dasharray: none; stroke-linecap: butt; stroke-dashoffset: 0; stroke-linejoin: miter; stroke-miterlimit: 4; fill: rgb(255,228,194); fill-rule: nonzero; opacity: 1;"  transform=" translate(-409.5, -224.5)" d="m 347 224.5 c 0 -34.463 28.037 -62.5 62.5 -62.5 s 62.5 28.037 62.5 62.5 s -28.037 62.5 -62.5 62.5 s -62.5 -28.037 -62.5 -62.5 z" stroke-linecap="round" />
</g>
		<g transform="matrix(0.57 0 0 0.57 219.72 238.29)"  >
<path style="stroke: none; stroke-width: 1; stroke-dasharray: none; stroke-linecap: butt; stroke-dashoffset: 0; stroke-linejoin: miter; stroke-miterlimit: 4; fill: rgb(242,209,165); fill-rule: nonzero; opacity: 1;"  transform=" translate(-133.75, -224.5)" d="m 102.5 162 v 125 c 34.463 0 62.5 -28.037 62.5 -62.5 s -28.037 -62.5 -62.5 -62.5 z" stroke-linecap="round" />
</g>
		<g transform="matrix(0.57 0 0 0.57 396.56 238.29)"  >
<path style="stroke: none; stroke-width: 1; stroke-dasharray: none; stroke-linecap: butt; stroke-dashoffset: 0; stroke-linejoin: miter; stroke-miterlimit: 4; fill: rgb(242,209,165); fill-rule: nonzero; opacity: 1;"  transform=" translate(-440.75, -224.5)" d="m 409.5 162 v 125 c 34.463 0 62.5 -28.037 62.5 -62.5 s -28.037 -62.5 -62.5 -62.5 z" stroke-linecap="round" />
</g>
		<g transform="matrix(0.99 0 0 0.99 -329.24 308.87)"  >
<line style="stroke: rgb(0,0,0); stroke-width: 2; stroke-dasharray: none; stroke-linecap: butt; stroke-dashoffset: 0; stroke-linejoin: miter; stroke-miterlimit: 4; fill: rgb(0,0,0); fill-rule: nonzero; opacity: 1;"  x1="0" y1="0" x2="0" y2="0" />
</g>
		<g transform="matrix(0.99 0 0 0.99 -288.2 295.2)"  >
<line style="stroke: rgb(0,0,0); stroke-width: 2; stroke-dasharray: none; stroke-linecap: butt; stroke-dashoffset: 0; stroke-linejoin: miter; stroke-miterlimit: 4; fill: rgb(0,0,0); fill-rule: nonzero; opacity: 1;"  x1="0" y1="0" x2="0" y2="0" />
</g>
</g>
</g>
</svg>